:FULLY-SPECIFIED
:FORCE-ALL-JOINTS-BE-3DOF
:DEGREES
136
root 7.8256 16.5442 -26.283 -10.6703 9.25285 5.3411
lfemur -5.34488 13.0667 -21.6247
ltibia 35.2662 0 0
lfoot -17.5421 -11.4854 0
ltoes 29.8357 0 0
rfemur -100.565 -26.0289 59.4894
rtibia 86.2047 0 0
rfoot 10.2331 20.5687 0
rtoes -29.0743 0 0
lowerback 17.1202 -3.09879 -8.93826
upperback 5.68113 -5.60113 -1.83259
thorax -2.77988 -2.81455 4.11704
lowerneck -12.6058 -0.605078 -0.231667
upperneck 0.670982 -0.915895 3.14446
head 2.42639 -0.346494 1.00366
lclavicle 2.0363e-14 -1.60519e-14 0
lhumerus -41.3369 -21.7373 90.2274
lradius 53.376 0 0
lwrist 17.4628 0 0
lhand 9.25473 6.58354 0
lfingers 7.12502 0 0
lthumb 34.4163 33.249 0
rclavicle 2.0363e-14 -1.60519e-14 0
rhumerus -43.9025 -25.3795 -57.1475
rradius 80.2624 0 0
rwrist -36.1413 0 0
rhand -17.6499 -26.2841 0
rfingers 7.12502 0 0
rthumb 8.57806 -55.3387 0
137
root 7.78799 16.522 -26.2774 -10.4532 10.1773 5.21224
lfemur -5.9169 13.4913 -21.3468
ltibia 35.7942 0 0
lfoot -17.6642 -12.5391 0
ltoes 30.4687 0 0
rfemur -101.379 -25.857 58.7493
rtibia 90.6138 0 0
rfoot 16.8905 21.1764 0
rtoes -24.9033 0 0
lowerback 17.1411 -3.43535 -8.91296
upperback 5.63365 -6.04589 -1.9442
thorax -2.79845 -3.0296 4.06175
lowerneck -12.5258 -0.686293 -0.430427
upperneck 0.536514 -1.00199 3.40193
head 2.37221 -0.383392 1.11661
lclavicle 3.19248e-14 -1.69689e-14 0
lhumerus -40.9196 -22.741 90.2076
lradius 52.9761 0 0
lwrist 17.5247 0 0
lhand 10.0186 6.92347 0
lfingers 7.12502 0 0
lthumb 35.1414 33.4242 0
rclavicle 3.19248e-14 -1.69689e-14 0
rhumerus -44.6857 -26.2596 -57.7295
rradius 81.6172 0 0
rwrist -36.8067 0 0
rhand -23.8006 -27.9997 0
rfingers 7.12502 0 0
rthumb 2.64961 -57.3176 0
138
root 7.75157 16.5005 -26.272 -10.2429 11.0723 5.0875
lfemur -6.47066 13.9023 -21.0777
ltibia 36.3054 0 0
lfoot -17.7823 -13.5592 0
ltoes 31.0816 0 0
rfemur -102.167 -25.6906 58.0328
rtibia 94.8822 0 0
rfoot 23.3355 21.7646 0
rtoes -20.8654 0 0
lowerback 17.1613 -3.76116 -8.88846
upperback 5.58768 -6.47645 -2.05226
thorax -2.81643 -3.23778 4.00823
lowerneck -12.4484 -0.764915 -0.622845
upperneck 0.406337 -1.08534 3.65118
head 2.31976 -0.419113 1.22597
lclavicle 4.31177e-14 -1.78566e-14 0
lhumerus -40.5157 -23.7127 90.1885
lradius 52.589 0 0
lwrist 17.5845 0 0
lhand 10.758 7.25255 0
lfingers 7.12502 0 0
lthumb 35.8433 33.5938 0
rclavicle 4.31177e-14 -1.78566e-14 0
rhumerus -45.4439 -27.1116 -58.2929
rradius 82.9288 0 0
rwrist -37.4508 0 0
rhand -29.755 -29.6606 0
rfingers 7.12502 0 0
rthumb -3.08964 -59.2334 0
139
root 7.71756 16.4805 -26.2669 -10.0465 11.9082 4.97098
lfemur -6.98791 14.2862 -20.8264
ltibia 36.7829 0 0
lfoot -17.8927 -14.5121 0
ltoes 31.654 0 0
rfemur -102.903 -25.5352 57.3636
rtibia 98.8692 0 0
rfoot 29.3556 22.314 0
rtoes -17.0937 0 0
lowerback 17.1802 -4.06549 -8.86558
upperback 5.54475 -6.87863 -2.15319
thorax -2.83323 -3.43224 3.95824
lowerneck -12.3761 -0.838353 -0.802575
upperneck 0.284744 -1.1632 3.884
head 2.27077 -0.452478 1.32811
lclavicle 5.35725e-14 -1.86858e-14 0
lhumerus -40.1384 -24.6203 90.1707
lradius 52.2274 0 0
lwrist 17.6404 0 0
lhand 11.4487 7.55993 0
lfingers 7.12502 0 0
lthumb 36.499 33.7523 0
rclavicle 5.35725e-14 -1.86858e-14 0
rhumerus -46.1521 -27.9074 -58.8192
rradius 84.1539 0 0
rwrist -38.0524 0 0
rhand -35.3168 -31.2119 0
rfingers 7.12502 0 0
rthumb -8.45048 -61.0228 0
140
root 7.66833 16.4722 -26.2619 -9.51369 12.8413 4.70256
lfemur -7.88907 14.7371 -20.5201
ltibia 37.0952 0 0
lfoot -18.1944 -13.9246 0
ltoes 29.347 0 0
rfemur -101.871 -26.0995 55.4433
rtibia 101.484 0 0
rfoot 29.3043 22.5144 0
rtoes -17.0084 0 0
lowerback 16.8771 -4.24447 -8.765
upperback 5.36484 -7.07753 -2.1261
thorax -2.84997 -3.52457 3.94191
lowerneck -12.2673 -1.0422 -0.850571
upperneck 0.240973 -1.43255 4.05667
head 2.24829 -0.582826 1.3777
lclavicle 5.77654e-14 -1.17394e-14 0
lhumerus -39.4964 -25.5166 90.4099
lradius 51.4775 0 0
lwrist 16.5445 0 0
lhand 12.8166 8.08053 0
lfingers 7.12502 0 0
lthumb 37.7843 33.8697 0
rclavicle 5.77654e-14 -1.17394e-14 0
rhumerus -47.0566 -27.139 -59.9629
rradius 84.8978 0 0
rwrist -34.6658 0 0
rhand -36.8868 -36.4063 0
rfingers 7.12502 0 0
rthumb -9.96367 -93.3833 0
141
root 7.61563 16.4633 -26.2566 -8.94327 13.8404 4.4152
lfemur -8.85383 15.2198 -20.1921
ltibia 37.4295 0 0
lfoot -18.5174 -13.2955 0
ltoes 26.8772 0 0
rfemur -100.767 -26.7036 53.3874
rtibia 104.284 0 0
rfoot 29.2494 22.7289 0
rtoes -16.917 0 0
lowerback 16.5525 -4.43608 -8.65733
upperback 5.17223 -7.29048 -2.09711
thorax -2.86789 -3.62342 3.92442
lowerneck -12.1509 -1.26043 -0.901955
upperneck 0.194112 -1.72091 4.24153
head 2.22421 -0.722375 1.4308
lclavicle 6.22542e-14 -4.30262e-15 0
lhumerus -38.8091 -26.4761 90.6659
lradius 50.6748 0 0
lwrist 15.3712 0 0
lhand 14.281 8.63789 0
lfingers 7.12502 0 0
lthumb 39.1603 33.9953 0
rclavicle 6.22542e-14 -4.30262e-15 0
rhumerus -48.0249 -26.3163 -61.1873
rradius 85.6942 0 0
rwrist -31.0401 0 0
rhand -38.5677 -41.9673 0
rfingers 7.12502 0 0
rthumb -11.5837 -128.028 0
